<?xml version="1.0" encoding="UTF-8" standalone="no"?>
<svg xmlns="http://www.w3.org/2000/svg" width="512" height="512" viewBox="0 0 512 512">

  <circle cx="256" cy="256" r="80" fill="none" stroke="#C9D1D9" stroke-width="36"/>
  <path d="M 256 32 L 280 96 L 232 96 Z" fill="#C9D1D9" transform="rotate(0 256 256)"/>
  <path d="M 256 32 L 280 96 L 232 96 Z" fill="#C9D1D9" transform="rotate(45 256 256)"/>
  <path d="M 256 32 L 280 96 L 232 96 Z" fill="#C9D1D9" transform="rotate(90 256 256)"/>
  <path d="M 256 32 L 280 96 L 232 96 Z" fill="#C9D1D9" transform="rotate(135 256 256)"/>
  <path d="M 256 32 L 280 96 L 232 96 Z" fill="#C9D1D9" transform="rotate(180 256 256)"/>
  <path d="M 256 32 L 280 96 L 232 96 Z" fill="#C9D1D9" transform="rotate(225 256 256)"/>
  <path d="M 256 32 L 280 96 L 232 96 Z" fill="#C9D1D9" transform="rotate(270 256 256)"/>
  <path d="M 256 32 L 280 96 L 232 96 Z" fill="#C9D1D9" transform="rotate(315 256 256)"/>

</svg>